<svg width="48" height="48" viewBox="0 0 48 48" fill="none" xmlns="http://www.w3.org/2000/svg">
<g id="Iconsans/Bold/Logout">
<path id="Vector" d="M15.5 23.46C15.5 23.8578 15.658 24.2394 15.9393 24.5207C16.2206 24.802 16.6022 24.96 17 24.96H27V36C27 37.5913 26.3679 39.1174 25.2426 40.2426C24.1174 41.3679 22.5913 42 21 42H13C11.4087 42 9.88258 41.3679 8.75736 40.2426C7.63214 39.1174 7 37.5913 7 36V12C7 10.4087 7.63214 8.88258 8.75736 7.75736C9.88258 6.63214 11.4087 6 13 6H21C22.5913 6 24.1174 6.63214 25.2426 7.75736C26.3679 8.88258 27 10.4087 27 12V22H17C16.609 21.9999 16.2334 22.1524 15.9532 22.4251C15.6731 22.6978 15.5104 23.0691 15.5 23.46Z" fill="#000D26"/>
<path id="Vector_2" d="M42.38 24C42.3041 24.1785 42.1956 24.3413 42.06 24.48L34.86 31.68C34.5787 31.9609 34.1975 32.1187 33.8 32.1187C33.4025 32.1187 33.0213 31.9609 32.74 31.68C32.4591 31.3988 32.3013 31.0175 32.3013 30.62C32.3013 30.2225 32.4591 29.8413 32.74 29.56L37.38 24.92H27V22H37.38L32.74 17.32C32.5926 17.1827 32.4744 17.0171 32.3924 16.8331C32.3105 16.6491 32.2664 16.4505 32.2628 16.2491C32.2593 16.0477 32.2963 15.8476 32.3718 15.6608C32.4472 15.474 32.5595 15.3044 32.7019 15.1619C32.8444 15.0195 33.014 14.9072 33.2008 14.8318C33.3876 14.7563 33.5876 14.7193 33.789 14.7228C33.9904 14.7264 34.1891 14.7705 34.3731 14.8525C34.5571 14.9344 34.7227 15.0526 34.86 15.2L42 22.4C42.1356 22.5387 42.2441 22.7015 42.32 22.88C42.4033 23.0535 42.4515 23.2418 42.4618 23.434C42.4721 23.6262 42.4443 23.8186 42.38 24Z" fill="#000D26"/>
</g>
</svg>
