<svg width="42" height="42" viewBox="0 0 42 42" fill="none" xmlns="http://www.w3.org/2000/svg">
<g id="Iconsans/Bold/User-3-Plus">
<path id="Vector" d="M19.6175 18.27C22.517 18.27 24.8675 15.9195 24.8675 13.02C24.8675 10.1205 22.517 7.77002 19.6175 7.77002C16.718 7.77002 14.3675 10.1205 14.3675 13.02C14.3675 15.9195 16.718 18.27 19.6175 18.27Z" fill="#000D26"/>
<path id="Vector_2" d="M21.5075 24.3075C21.5489 24.2257 21.569 24.1347 21.5657 24.043C21.5624 23.9513 21.5359 23.862 21.4887 23.7833C21.4415 23.7046 21.3751 23.6392 21.2958 23.5932C21.2164 23.5471 21.1267 23.522 21.035 23.52H9.88749C8.99011 23.52 8.12922 23.8753 7.49303 24.5082C6.85685 25.1411 6.49712 26.0001 6.49249 26.8975V32.1475C6.49249 32.2868 6.54781 32.4203 6.64626 32.5188C6.74472 32.6172 6.87825 32.6725 7.01749 32.6725H21.0175C21.1072 32.6709 21.1949 32.6464 21.2724 32.6013C21.3499 32.5561 21.4146 32.4919 21.4602 32.4147C21.5058 32.3375 21.5309 32.2499 21.5331 32.1602C21.5352 32.0705 21.5144 31.9818 21.4725 31.9025C20.8939 30.7079 20.5947 29.3974 20.5975 28.07C20.6107 26.763 20.9219 25.4761 21.5075 24.3075Z" fill="#000D26"/>
<path id="Vector_3" d="M29.3825 21.98C28.1711 21.98 26.9869 22.3392 25.9796 23.0122C24.9724 23.6853 24.1873 24.6418 23.7237 25.761C23.2602 26.8802 23.1389 28.1118 23.3752 29.2999C23.6115 30.488 24.1949 31.5794 25.0515 32.436C25.9081 33.2926 26.9994 33.876 28.1876 34.1123C29.3757 34.3486 30.6073 34.2273 31.7264 33.7637C32.8456 33.3002 33.8022 32.5151 34.4753 31.5078C35.1483 30.5006 35.5075 29.3164 35.5075 28.105C35.5075 26.4805 34.8622 24.9226 33.7135 23.774C32.5649 22.6253 31.007 21.98 29.3825 21.98ZM32.0075 29.4175H30.695V30.73C30.695 31.0781 30.5567 31.4119 30.3106 31.6581C30.0644 31.9042 29.7306 32.0425 29.3825 32.0425C29.0344 32.0425 28.7006 31.9042 28.4544 31.6581C28.2083 31.4119 28.07 31.0781 28.07 30.73V29.4175H26.7575C26.4094 29.4175 26.0756 29.2792 25.8294 29.0331C25.5833 28.7869 25.445 28.4531 25.445 28.105C25.445 27.7569 25.5833 27.423 25.8294 27.1769C26.0756 26.9308 26.4094 26.7925 26.7575 26.7925H28V25.48C28 25.1319 28.1383 24.798 28.3844 24.5519C28.6306 24.3058 28.9644 24.1675 29.3125 24.1675C29.6606 24.1675 29.9944 24.3058 30.2406 24.5519C30.4867 24.798 30.625 25.1319 30.625 25.48V26.7925H31.9375C32.2856 26.7925 32.6194 26.9308 32.8656 27.1769C33.1117 27.423 33.25 27.7569 33.25 28.105C33.25 28.4531 33.1117 28.7869 32.8656 29.0331C32.6194 29.2792 32.2856 29.4175 31.9375 29.4175H32.0075Z" fill="#000D26"/>
</g>
</svg>
